<svg viewBox="0 0 200 200" xmlns="http://www.w3.org/2000/svg">
    <path fill="#D0E2FF" d="M44.7,-77.4C59,-69.3,72.2,-59.3,77.5,-46.1C82.8,-32.9,80.2,-16.4,77.4,-1.6C74.7,13.3,71.8,26.5,65.8,38.5C59.8,50.5,50.6,61.1,39.1,70.9C27.6,80.6,13.8,89.3,2.5,85C-8.8,80.6,-17.6,63.1,-31.8,55C-46.1,46.9,-65.8,48.1,-69.3,40.5C-72.8,32.9,-60,16.5,-53.8,3.6C-47.6,-9.3,-47.9,-18.6,-48.2,-32.8C-48.5,-46.9,-48.8,-66,-40.8,-77.8C-32.7,-89.5,-16.4,-93.9,-0.6,-92.9C15.2,-92,30.5,-85.6,44.7,-77.4Z" transform="translate(100 100)" />
  </svg>